<svg preserveAspectRatio="none" overflow="visible" style="display: block;" width="32" height="32" viewBox="0 0 32 32" fill="none" xmlns="http://www.w3.org/2000/svg">
<g id="Frame 27">
<g clip-path="url(#clip0_0_7)">
<rect width="32" height="32" rx="16" fill="#0116A2" style="fill:#0116A2;fill:color(display-p3 0.0031 0.0873 0.6346);fill-opacity:1;"/>
<g id="Vector">
<path fill-rule="evenodd" clip-rule="evenodd" d="M-1.48387 21.406L-5.00395 19.7696L9.60438 17.8813C9.88096 18.3345 10.1073 18.7373 10.409 19.1401L-1.48387 21.406Z" fill="white" style="fill:white;fill-opacity:1;"/>
<path fill-rule="evenodd" clip-rule="evenodd" d="M37.7649 21.407L41.285 19.6699L26.8527 17.832C26.6644 18.3073 26.4013 18.7493 26.0732 19.1412L37.7649 21.407Z" fill="white" style="fill:white;fill-opacity:1;"/>
<path fill-rule="evenodd" clip-rule="evenodd" d="M35.625 21.6594L31.1998 23.2204L24.9139 21.2063L24.3356 21.03C24.5444 20.8524 24.7302 20.6494 24.8888 20.4258C25.1402 20.1992 25.3665 19.8971 25.618 19.6705L35.625 21.6594Z" fill="white" style="fill:white;fill-opacity:1;"/>
<path fill-rule="evenodd" clip-rule="evenodd" d="M47.3186 17.2786L43.2705 19.2676L27.1033 17.2786C27.229 16.8758 27.3798 16.4478 27.4804 16.0702L47.3186 17.2786Z" fill="white" style="fill:white;fill-opacity:1;"/>
<path fill-rule="evenodd" clip-rule="evenodd" d="M48.7517 16.6718L54.0319 13.122H25.4689C25.4959 14.2466 25.3081 15.366 24.9158 16.4201C23.8993 19.1809 21.2133 20.9637 18.2779 20.826C15.398 20.7843 12.7932 19.104 11.5646 16.4956C11.1005 15.4324 10.8691 14.2821 10.8857 13.122H-17.7778L-12.5479 16.6718L9.25141 15.5137C9.61754 17.0742 10.3797 18.5138 11.464 19.693C13.181 21.5964 15.6159 22.6922 18.1773 22.7142C20.727 22.7915 23.1721 21.6972 24.8152 19.7434C25.8626 18.5264 26.604 17.0761 26.9775 15.5137L48.7517 16.6718Z" fill="white" style="fill:white;fill-opacity:1;"/>
<path fill-rule="evenodd" clip-rule="evenodd" d="M24.9159 25.888L25.4691 26.9706L24.9159 27.2476L23.4324 27.9525L21.8233 24.4026C20.7192 24.8139 19.556 25.0435 18.3786 25.0824C17.1079 25.1409 15.8374 24.9616 14.6322 24.5537L13.1739 27.9777C12.6401 28.0529 12.097 27.937 11.6402 27.6504C11.3874 27.5015 11.2059 27.2561 11.1373 26.9706L11.6402 26.0643L12.8722 23.7229C12.4938 23.4909 12.14 23.221 11.8162 22.9172L12.8471 21.6081C14.4839 22.7115 16.4056 23.315 18.3786 23.3452C20.3686 23.3679 22.3051 22.7008 23.8599 21.457L25.0165 21.8095L25.4942 21.9857L25.0165 22.3885C24.6834 22.7968 24.2839 23.1457 23.8347 23.4208L24.9159 25.888Z" fill="white" style="fill:white;fill-opacity:1;"/>
<path fill-rule="evenodd" clip-rule="evenodd" d="M24.9179 7.43378C26.062 8.91699 26.8609 10.6373 27.2563 12.4691H25.4208C25.2954 11.8868 25.1273 11.3146 24.9179 10.7571C23.5806 7.51434 21.2584 4.77506 18.2801 2.92721C17.9029 2.70062 17.5509 2.42368 17.1737 2.22227L18.2801 2.62509C20.8694 3.6287 23.1559 5.28512 24.9179 7.43378Z" fill="white" style="fill:white;fill-opacity:1;"/>
<path fill-rule="evenodd" clip-rule="evenodd" d="M19.8893 20.1459C20.5304 20.0173 21.1328 19.7416 21.6494 19.3402L18.8333 13.2476L21.8254 11.737L19.311 9.39556L18.2801 9.89909L13.88 11.9887L15.1624 15.0603L17.2241 14.0784L19.8893 20.1459Z" fill="white" style="fill:white;fill-opacity:1;"/>
<path fill-rule="evenodd" clip-rule="evenodd" d="M11.9925 21.0037L11.4897 20.5505C11.1697 20.2647 10.883 19.9438 10.6348 19.5938L0.577409 21.6079L4.97751 23.0681L11.9925 21.0037Z" fill="white" style="fill:white;fill-opacity:1;"/>
<path fill-rule="evenodd" clip-rule="evenodd" d="M9.25321 17.2786C9.07721 16.8758 8.95149 16.4478 8.82577 16.0702L-11.1633 17.2786L-7.11516 19.3431L9.25321 17.2786Z" fill="white" style="fill:white;fill-opacity:1;"/>
</g>
</g>
</g>
<defs>
<clipPath id="clip0_0_7">
<rect width="32" height="32" rx="16" fill="white" style="fill:white;fill-opacity:1;"/>
</clipPath>
</defs>
</svg>
